<svg xmlns="http://www.w3.org/2000/svg" xmlns:xlink="http://www.w3.org/1999/xlink" version="1.1" class="marks" width="1015" height="489" viewBox="0 0 1015 489"><rect width="1015" height="489" fill="white"/><g fill="none" stroke-miterlimit="10" transform="translate(48,52)"><g class="mark-group role-frame root" role="graphics-object" aria-roledescription="group mark container"><g transform="translate(0,0)"><path class="background" aria-hidden="true" d="M0,0h700v400h-700Z"/><g><g class="mark-group role-axis" role="graphics-symbol" aria-roledescription="axis" aria-label="X-axis titled 'Year' for a discrete scale with 7 values: 2015, 2016, 2017, 2018, 2019, 2020, 2021"><g transform="translate(0.5,400.5)"><path class="background" aria-hidden="true" d="M0,0h0v0h0Z" pointer-events="none"/><g><g class="mark-rule role-axis-tick" pointer-events="none"><line transform="translate(50,0)" x2="0" y2="5" stroke="#888" stroke-width="1" opacity="1"/><line transform="translate(150,0)" x2="0" y2="5" stroke="#888" stroke-width="1" opacity="1"/><line transform="translate(250,0)" x2="0" y2="5" stroke="#888" stroke-width="1" opacity="1"/><line transform="translate(350,0)" x2="0" y2="5" stroke="#888" stroke-width="1" opacity="1"/><line transform="translate(450,0)" x2="0" y2="5" stroke="#888" stroke-width="1" opacity="1"/><line transform="translate(550,0)" x2="0" y2="5" stroke="#888" stroke-width="1" opacity="1"/><line transform="translate(650,0)" x2="0" y2="5" stroke="#888" stroke-width="1" opacity="1"/></g><g class="mark-text role-axis-label" pointer-events="none"><text text-anchor="middle" transform="translate(50,15)" font-family="sans-serif" font-size="10px" fill="#000" opacity="1">2015</text><text text-anchor="middle" transform="translate(150,15)" font-family="sans-serif" font-size="10px" fill="#000" opacity="1">2016</text><text text-anchor="middle" transform="translate(250,15)" font-family="sans-serif" font-size="10px" fill="#000" opacity="1">2017</text><text text-anchor="middle" transform="translate(350,15)" font-family="sans-serif" font-size="10px" fill="#000" opacity="1">2018</text><text text-anchor="middle" transform="translate(450,15)" font-family="sans-serif" font-size="10px" fill="#000" opacity="1">2019</text><text text-anchor="middle" transform="translate(550,15)" font-family="sans-serif" font-size="10px" fill="#000" opacity="1">2020</text><text text-anchor="middle" transform="translate(650,15)" font-family="sans-serif" font-size="10px" fill="#000" opacity="1">2021</text></g><g class="mark-rule role-axis-domain" pointer-events="none"><line transform="translate(0,0)" x2="700" y2="0" stroke="#888" stroke-width="1" opacity="1"/></g><g class="mark-text role-axis-title" pointer-events="none"><text text-anchor="middle" transform="translate(350,30)" font-family="sans-serif" font-size="11px" font-weight="bold" fill="#000" opacity="1">Year</text></g></g><path class="foreground" aria-hidden="true" d="" pointer-events="none" display="none"/></g></g><g class="mark-group role-axis" role="graphics-symbol" aria-roledescription="axis" aria-label="Y-axis titled 'Percentage of Ever Use' for a linear scale with values from 0% to 55%"><g transform="translate(0.5,0.5)"><path class="background" aria-hidden="true" d="M0,0h0v0h0Z" pointer-events="none"/><g><g class="mark-rule role-axis-tick" pointer-events="none"><line transform="translate(0,400)" x2="-5" y2="0" stroke="#888" stroke-width="1" opacity="1"/><line transform="translate(0,327)" x2="-5" y2="0" stroke="#888" stroke-width="1" opacity="1"/><line transform="translate(0,255)" x2="-5" y2="0" stroke="#888" stroke-width="1" opacity="1"/><line transform="translate(0,182)" x2="-5" y2="0" stroke="#888" stroke-width="1" opacity="1"/><line transform="translate(0,109)" x2="-5" y2="0" stroke="#888" stroke-width="1" opacity="1"/><line transform="translate(0,36)" x2="-5" y2="0" stroke="#888" stroke-width="1" opacity="1"/></g><g class="mark-text role-axis-label" pointer-events="none"><text text-anchor="end" transform="translate(-7,403)" font-family="sans-serif" font-size="10px" fill="#000" opacity="1">0%</text><text text-anchor="end" transform="translate(-7,330.27272727272725)" font-family="sans-serif" font-size="10px" fill="#000" opacity="1">10%</text><text text-anchor="end" transform="translate(-7,257.5454545454545)" font-family="sans-serif" font-size="10px" fill="#000" opacity="1">20%</text><text text-anchor="end" transform="translate(-7,184.81818181818184)" font-family="sans-serif" font-size="10px" fill="#000" opacity="1">30%</text><text text-anchor="end" transform="translate(-7,112.09090909090908)" font-family="sans-serif" font-size="10px" fill="#000" opacity="1">40%</text><text text-anchor="end" transform="translate(-7,39.363636363636374)" font-family="sans-serif" font-size="10px" fill="#000" opacity="1">50%</text></g><g class="mark-rule role-axis-domain" pointer-events="none"><line transform="translate(0,400)" x2="0" y2="-400" stroke="#888" stroke-width="1" opacity="1"/></g><g class="mark-text role-axis-title" pointer-events="none"><text text-anchor="middle" transform="translate(-31.0146484375,200) rotate(-90) translate(0,-2)" font-family="sans-serif" font-size="11px" font-weight="bold" fill="#000" opacity="1">Percentage of Ever Use</text></g></g><path class="foreground" aria-hidden="true" d="" pointer-events="none" display="none"/></g></g><g class="mark-group role-scope layer_0_layer_0_pathgroup" role="graphics-object" aria-roledescription="group mark container"><g transform="translate(0,0)"><path class="background" aria-hidden="true" d="M0,0h700v400h-700Z"/><g><g class="mark-line role-mark layer_0_layer_0_marks" role="graphics-object" aria-roledescription="line mark container"><path aria-label="Year: 2015; Percentage of Ever Use: 50.589718%; Product: Cigarettes" role="graphics-symbol" aria-roledescription="line mark" d="M50,32.075L150,45.637L250,47.129L350,56.117L450,67.418L550,76.637L650,88.296" stroke="rgb(140, 201, 205)" stroke-width="2"/></g></g><path class="foreground" aria-hidden="true" d="" display="none"/></g><g transform="translate(0,0)"><path class="background" aria-hidden="true" d="M0,0h700v400h-700Z"/><g><g class="mark-line role-mark layer_0_layer_0_marks" role="graphics-object" aria-roledescription="line mark container"><path aria-label="Year: 2015; Percentage of Ever Use: 16.391348%; Product: Smokeless" role="graphics-symbol" aria-roledescription="line mark" d="M50,280.79L150,283.464L250,281.532L350,287.589L450,289.541L550,300.592L650,309.207" stroke="rgb(50, 117, 155)" stroke-width="2"/></g></g><path class="foreground" aria-hidden="true" d="" display="none"/></g><g transform="translate(0,0)"><path class="background" aria-hidden="true" d="M0,0h700v400h-700Z"/><g><g class="mark-line role-mark layer_0_layer_0_marks" role="graphics-object" aria-roledescription="line mark container"><path aria-label="Year: 2015; Percentage of Ever Use: 29.267140%; Product: Cigars" role="graphics-symbol" aria-roledescription="line mark" d="M50,187.148L150,192.275L250,191.301L350,192.187L450,199.927L550,195.171L650,214.654" stroke="rgb(95, 176, 192)" stroke-width="2"/></g></g><path class="foreground" aria-hidden="true" d="" display="none"/></g><g transform="translate(0,0)"><path class="background" aria-hidden="true" d="M0,0h700v400h-700Z"/><g><g class="mark-line role-mark layer_0_layer_0_marks" role="graphics-object" aria-roledescription="line mark container"><path aria-label="Year: 2015; Percentage of Ever Use: 9.171246%; Product: Pipes" role="graphics-symbol" aria-roledescription="line mark" d="M50,333.3L150,336.178L250,334.22L350,336.549L450,339.07L550,340.501L650,343.607" stroke="rgb(57, 147, 176)" stroke-width="2"/></g></g><path class="foreground" aria-hidden="true" d="" display="none"/></g></g><g class="mark-symbol role-mark layer_0_layer_1_marks" role="graphics-object" aria-roledescription="symbol mark container"><path aria-label="Year: 2015; Percentage of Ever Use: 50.589718%; Product: Cigarettes" role="graphics-symbol" aria-roledescription="point" transform="translate(50,32.07478134157169)" d="M2.739,0A2.739,2.739,0,1,1,-2.739,0A2.739,2.739,0,1,1,2.739,0" fill="rgb(140, 201, 205)" stroke-width="2" opacity="1"/><path aria-label="Year: 2016; Percentage of Ever Use: 48.724889%; Product: Cigarettes" role="graphics-symbol" aria-roledescription="point" transform="translate(150,45.63717211484231)" d="M2.739,0A2.739,2.739,0,1,1,-2.739,0A2.739,2.739,0,1,1,2.739,0" fill="rgb(140, 201, 205)" stroke-width="2" opacity="1"/><path aria-label="Year: 2017; Percentage of Ever Use: 48.519795%; Product: Cigarettes" role="graphics-symbol" aria-roledescription="point" transform="translate(250,47.12876149367729)" d="M2.739,0A2.739,2.739,0,1,1,-2.739,0A2.739,2.739,0,1,1,2.739,0" fill="rgb(140, 201, 205)" stroke-width="2" opacity="1"/><path aria-label="Year: 2018; Percentage of Ever Use: 47.283931%; Product: Cigarettes" role="graphics-symbol" aria-roledescription="point" transform="translate(350,56.11686628148193)" d="M2.739,0A2.739,2.739,0,1,1,-2.739,0A2.739,2.739,0,1,1,2.739,0" fill="rgb(140, 201, 205)" stroke-width="2" opacity="1"/><path aria-label="Year: 2019; Percentage of Ever Use: 45.730013%; Product: Cigarettes" role="graphics-symbol" aria-roledescription="point" transform="translate(450,67.41808853822535)" d="M2.739,0A2.739,2.739,0,1,1,-2.739,0A2.739,2.739,0,1,1,2.739,0" fill="rgb(140, 201, 205)" stroke-width="2" opacity="1"/><path aria-label="Year: 2020; Percentage of Ever Use: 44.462348%; Product: Cigarettes" role="graphics-symbol" aria-roledescription="point" transform="translate(550,76.63747191306247)" d="M2.739,0A2.739,2.739,0,1,1,-2.739,0A2.739,2.739,0,1,1,2.739,0" fill="rgb(140, 201, 205)" stroke-width="2" opacity="1"/><path aria-label="Year: 2021; Percentage of Ever Use: 42.859358%; Product: Cigarettes" role="graphics-symbol" aria-roledescription="point" transform="translate(650,88.29557594764199)" d="M2.739,0A2.739,2.739,0,1,1,-2.739,0A2.739,2.739,0,1,1,2.739,0" fill="rgb(140, 201, 205)" stroke-width="2" opacity="1"/><path aria-label="Year: 2015; Percentage of Ever Use: 16.391348%; Product: Smokeless" role="graphics-symbol" aria-roledescription="point" transform="translate(50,280.7901929030267)" d="M2.739,0A2.739,2.739,0,1,1,-2.739,0A2.739,2.739,0,1,1,2.739,0" fill="rgb(50, 117, 155)" stroke-width="2" opacity="1"/><path aria-label="Year: 2016; Percentage of Ever Use: 16.023692%; Product: Smokeless" role="graphics-symbol" aria-roledescription="point" transform="translate(150,283.46405865782987)" d="M2.739,0A2.739,2.739,0,1,1,-2.739,0A2.739,2.739,0,1,1,2.739,0" fill="rgb(50, 117, 155)" stroke-width="2" opacity="1"/><path aria-label="Year: 2017; Percentage of Ever Use: 16.289360%; Product: Smokeless" role="graphics-symbol" aria-roledescription="point" transform="translate(250,281.5319302916147)" d="M2.739,0A2.739,2.739,0,1,1,-2.739,0A2.739,2.739,0,1,1,2.739,0" fill="rgb(50, 117, 155)" stroke-width="2" opacity="1"/><path aria-label="Year: 2018; Percentage of Ever Use: 15.456467%; Product: Smokeless" role="graphics-symbol" aria-roledescription="point" transform="translate(350,287.5893342890306)" d="M2.739,0A2.739,2.739,0,1,1,-2.739,0A2.739,2.739,0,1,1,2.739,0" fill="rgb(50, 117, 155)" stroke-width="2" opacity="1"/><path aria-label="Year: 2019; Percentage of Ever Use: 15.188115%; Product: Smokeless" role="graphics-symbol" aria-roledescription="point" transform="translate(450,289.5409848808737)" d="M2.739,0A2.739,2.739,0,1,1,-2.739,0A2.739,2.739,0,1,1,2.739,0" fill="rgb(50, 117, 155)" stroke-width="2" opacity="1"/><path aria-label="Year: 2020; Percentage of Ever Use: 13.668562%; Product: Smokeless" role="graphics-symbol" aria-roledescription="point" transform="translate(550,300.59227854503445)" d="M2.739,0A2.739,2.739,0,1,1,-2.739,0A2.739,2.739,0,1,1,2.739,0" fill="rgb(50, 117, 155)" stroke-width="2" opacity="1"/><path aria-label="Year: 2021; Percentage of Ever Use: 12.484061%; Product: Smokeless" role="graphics-symbol" aria-roledescription="point" transform="translate(650,309.2068285989091)" d="M2.739,0A2.739,2.739,0,1,1,-2.739,0A2.739,2.739,0,1,1,2.739,0" fill="rgb(50, 117, 155)" stroke-width="2" opacity="1"/><path aria-label="Year: 2015; Percentage of Ever Use: 29.267140%; Product: Cigars" role="graphics-symbol" aria-roledescription="point" transform="translate(50,187.14807049248657)" d="M2.739,0A2.739,2.739,0,1,1,-2.739,0A2.739,2.739,0,1,1,2.739,0" fill="rgb(95, 176, 192)" stroke-width="2" opacity="1"/><path aria-label="Year: 2016; Percentage of Ever Use: 28.562139%; Product: Cigars" role="graphics-symbol" aria-roledescription="point" transform="translate(150,192.2753556266747)" d="M2.739,0A2.739,2.739,0,1,1,-2.739,0A2.739,2.739,0,1,1,2.739,0" fill="rgb(95, 176, 192)" stroke-width="2" opacity="1"/><path aria-label="Year: 2017; Percentage of Ever Use: 28.696069%; Product: Cigars" role="graphics-symbol" aria-roledescription="point" transform="translate(250,191.30131365542553)" d="M2.739,0A2.739,2.739,0,1,1,-2.739,0A2.739,2.739,0,1,1,2.739,0" fill="rgb(95, 176, 192)" stroke-width="2" opacity="1"/><path aria-label="Year: 2018; Percentage of Ever Use: 28.574219%; Product: Cigars" role="graphics-symbol" aria-roledescription="point" transform="translate(350,192.18749747757263)" d="M2.739,0A2.739,2.739,0,1,1,-2.739,0A2.739,2.739,0,1,1,2.739,0" fill="rgb(95, 176, 192)" stroke-width="2" opacity="1"/><path aria-label="Year: 2019; Percentage of Ever Use: 27.509976%; Product: Cigars" role="graphics-symbol" aria-roledescription="point" transform="translate(450,199.92744892274607)" d="M2.739,0A2.739,2.739,0,1,1,-2.739,0A2.739,2.739,0,1,1,2.739,0" fill="rgb(95, 176, 192)" stroke-width="2" opacity="1"/><path aria-label="Year: 2020; Percentage of Ever Use: 28.164047%; Product: Cigars" role="graphics-symbol" aria-roledescription="point" transform="translate(550,195.17056682411015)" d="M2.739,0A2.739,2.739,0,1,1,-2.739,0A2.739,2.739,0,1,1,2.739,0" fill="rgb(95, 176, 192)" stroke-width="2" opacity="1"/><path aria-label="Year: 2021; Percentage of Ever Use: 25.485060%; Product: Cigars" role="graphics-symbol" aria-roledescription="point" transform="translate(650,214.65410558700705)" d="M2.739,0A2.739,2.739,0,1,1,-2.739,0A2.739,2.739,0,1,1,2.739,0" fill="rgb(95, 176, 192)" stroke-width="2" opacity="1"/><path aria-label="Year: 2015; Percentage of Ever Use: 9.171246%; Product: Pipes" role="graphics-symbol" aria-roledescription="point" transform="translate(50,333.3000321345962)" d="M2.739,0A2.739,2.739,0,1,1,-2.739,0A2.739,2.739,0,1,1,2.739,0" fill="rgb(57, 147, 176)" stroke-width="2" opacity="1"/><path aria-label="Year: 2016; Percentage of Ever Use: 8.775507%; Product: Pipes" role="graphics-symbol" aria-roledescription="point" transform="translate(150,336.1781336929412)" d="M2.739,0A2.739,2.739,0,1,1,-2.739,0A2.739,2.739,0,1,1,2.739,0" fill="rgb(57, 147, 176)" stroke-width="2" opacity="1"/><path aria-label="Year: 2017; Percentage of Ever Use: 9.044708%; Product: Pipes" role="graphics-symbol" aria-roledescription="point" transform="translate(250,334.2203038272411)" d="M2.739,0A2.739,2.739,0,1,1,-2.739,0A2.739,2.739,0,1,1,2.739,0" fill="rgb(57, 147, 176)" stroke-width="2" opacity="1"/><path aria-label="Year: 2018; Percentage of Ever Use: 8.724451%; Product: Pipes" role="graphics-symbol" aria-roledescription="point" transform="translate(350,336.549448456113)" d="M2.739,0A2.739,2.739,0,1,1,-2.739,0A2.739,2.739,0,1,1,2.739,0" fill="rgb(57, 147, 176)" stroke-width="2" opacity="1"/><path aria-label="Year: 2019; Percentage of Ever Use: 8.377868%; Product: Pipes" role="graphics-symbol" aria-roledescription="point" transform="translate(450,339.0700506561986)" d="M2.739,0A2.739,2.739,0,1,1,-2.739,0A2.739,2.739,0,1,1,2.739,0" fill="rgb(57, 147, 176)" stroke-width="2" opacity="1"/><path aria-label="Year: 2020; Percentage of Ever Use: 8.181072%; Product: Pipes" role="graphics-symbol" aria-roledescription="point" transform="translate(550,340.5012948320035)" d="M2.739,0A2.739,2.739,0,1,1,-2.739,0A2.739,2.739,0,1,1,2.739,0" fill="rgb(57, 147, 176)" stroke-width="2" opacity="1"/><path aria-label="Year: 2021; Percentage of Ever Use: 7.754075%; Product: Pipes" role="graphics-symbol" aria-roledescription="point" transform="translate(650,343.60672583783173)" d="M2.739,0A2.739,2.739,0,1,1,-2.739,0A2.739,2.739,0,1,1,2.739,0" fill="rgb(57, 147, 176)" stroke-width="2" opacity="1"/></g><g class="mark-text role-mark layer_1_marks" role="graphics-object" aria-roledescription="text mark container"><text aria-label="Max of year: 2021; Percentage for max year: 0.428593583072; Product: Cigarettes" role="graphics-symbol" aria-roledescription="text mark" text-anchor="start" transform="translate(660,91.29557594764199)" font-family="sans-serif" font-size="11px" fill="black">Cigarettes</text><text aria-label="Max of year: 2021; Percentage for max year: 0.124840610676; Product: Smokeless" role="graphics-symbol" aria-roledescription="text mark" text-anchor="start" transform="translate(660,312.2068285989091)" font-family="sans-serif" font-size="11px" fill="black">Smokeless</text><text aria-label="Max of year: 2021; Percentage for max year: 0.254850604818; Product: Cigars" role="graphics-symbol" aria-roledescription="text mark" text-anchor="start" transform="translate(660,217.65410558700705)" font-family="sans-serif" font-size="11px" fill="black">Cigars</text><text aria-label="Max of year: 2021; Percentage for max year: 0.077540751973; Product: Pipes" role="graphics-symbol" aria-roledescription="text mark" text-anchor="start" transform="translate(660,346.60672583783173)" font-family="sans-serif" font-size="11px" fill="black">Pipes</text></g><g class="mark-group role-title"><g transform="translate(-42.0146484375,-47)"><path class="background" aria-hidden="true" d="M0,0h0v0h0Z" pointer-events="none"/><g><g class="mark-text role-title-text" role="graphics-symbol" aria-roledescription="title" aria-label="Title text 'Percentage of Ever Use of Cigarettes, Smokeless Tobacco, Cigars, and Pipes by Year'" pointer-events="none"><text text-anchor="start" transform="translate(0,19)" font-family="Roboto, sans-serif" font-size="24px" font-weight="bold" fill="#000" opacity="1">Percentage of Ever Use of Cigarettes, Smokeless Tobacco, Cigars, and Pipes by Year</text></g><g class="mark-text role-title-subtitle" role="graphics-symbol" aria-roledescription="subtitle" aria-label="Subtitle text 'Cigarette use shows the steepest decline among all tobacco products, while other forms of tobacco exhibit more gradual decreases over time.'" pointer-events="none"><text text-anchor="start" transform="translate(0,40)" font-family="Roboto, sans-serif" font-size="16px" fill="#000" opacity="1">Cigarette use shows the steepest decline among all tobacco products, while other forms of tobacco exhibit more gradual decreases over time.</text></g></g><path class="foreground" aria-hidden="true" d="" pointer-events="none" display="none"/></g></g></g><path class="foreground" aria-hidden="true" d="" display="none"/></g></g></g></svg>