<svg xmlns="http://www.w3.org/2000/svg" xmlns:xlink="http://www.w3.org/1999/xlink" version="1.1" class="marks" width="712" height="394" viewBox="0 0 712 394"><rect width="712" height="394" fill="white"/><g fill="none" stroke-miterlimit="10" transform="translate(39,57)"><g class="mark-group role-frame root" role="graphics-object" aria-roledescription="group mark container"><g transform="translate(0,0)"><path class="background" aria-hidden="true" d="M0,0h600v300h-600Z"/><g><g class="mark-group role-axis" role="graphics-symbol" aria-roledescription="axis" aria-label="X-axis titled 'year' for a discrete scale with 7 values: 2015, 2016, 2017, 2018, 2019, 2020, 2021"><g transform="translate(0.5,300.5)"><path class="background" aria-hidden="true" d="M0,0h0v0h0Z" pointer-events="none"/><g><g class="mark-rule role-axis-tick" pointer-events="none"><line transform="translate(42,0)" x2="0" y2="5" stroke="#888" stroke-width="1" opacity="1"/><line transform="translate(128,0)" x2="0" y2="5" stroke="#888" stroke-width="1" opacity="1"/><line transform="translate(214,0)" x2="0" y2="5" stroke="#888" stroke-width="1" opacity="1"/><line transform="translate(299,0)" x2="0" y2="5" stroke="#888" stroke-width="1" opacity="1"/><line transform="translate(385,0)" x2="0" y2="5" stroke="#888" stroke-width="1" opacity="1"/><line transform="translate(471,0)" x2="0" y2="5" stroke="#888" stroke-width="1" opacity="1"/><line transform="translate(557,0)" x2="0" y2="5" stroke="#888" stroke-width="1" opacity="1"/></g><g class="mark-text role-axis-label" pointer-events="none"><text text-anchor="middle" transform="translate(42.357142857142854,15)" font-family="sans-serif" font-size="10px" fill="#000" opacity="1">2015</text><text text-anchor="middle" transform="translate(128.07142857142856,15)" font-family="sans-serif" font-size="10px" fill="#000" opacity="1">2016</text><text text-anchor="middle" transform="translate(213.78571428571428,15)" font-family="sans-serif" font-size="10px" fill="#000" opacity="1">2017</text><text text-anchor="middle" transform="translate(299.49999999999994,15)" font-family="sans-serif" font-size="10px" fill="#000" opacity="1">2018</text><text text-anchor="middle" transform="translate(385.21428571428567,15)" font-family="sans-serif" font-size="10px" fill="#000" opacity="1">2019</text><text text-anchor="middle" transform="translate(470.9285714285714,15)" font-family="sans-serif" font-size="10px" fill="#000" opacity="1">2020</text><text text-anchor="middle" transform="translate(556.6428571428571,15)" font-family="sans-serif" font-size="10px" fill="#000" opacity="1">2021</text></g><g class="mark-rule role-axis-domain" pointer-events="none"><line transform="translate(0,0)" x2="600" y2="0" stroke="#888" stroke-width="1" opacity="1"/></g><g class="mark-text role-axis-title" pointer-events="none"><text text-anchor="middle" transform="translate(300,30)" font-family="sans-serif" font-size="11px" font-weight="bold" fill="#000" opacity="1">year</text></g></g><path class="foreground" aria-hidden="true" d="" pointer-events="none" display="none"/></g></g><g class="mark-group role-axis" role="graphics-symbol" aria-roledescription="axis" aria-label="Y-axis titled 'Average Age' for a linear scale with values from 12 to 18"><g transform="translate(0.5,0.5)"><path class="background" aria-hidden="true" d="M0,0h0v0h0Z" pointer-events="none"/><g><g class="mark-rule role-axis-tick" pointer-events="none"><line transform="translate(0,300)" x2="-5" y2="0" stroke="#888" stroke-width="1" opacity="1"/><line transform="translate(0,250)" x2="-5" y2="0" stroke="#888" stroke-width="1" opacity="1"/><line transform="translate(0,200)" x2="-5" y2="0" stroke="#888" stroke-width="1" opacity="1"/><line transform="translate(0,150)" x2="-5" y2="0" stroke="#888" stroke-width="1" opacity="1"/><line transform="translate(0,100)" x2="-5" y2="0" stroke="#888" stroke-width="1" opacity="1"/><line transform="translate(0,50)" x2="-5" y2="0" stroke="#888" stroke-width="1" opacity="1"/><line transform="translate(0,0)" x2="-5" y2="0" stroke="#888" stroke-width="1" opacity="1"/></g><g class="mark-text role-axis-label" pointer-events="none"><text text-anchor="end" transform="translate(-7,303)" font-family="sans-serif" font-size="10px" fill="#000" opacity="1">12</text><text text-anchor="end" transform="translate(-7,253)" font-family="sans-serif" font-size="10px" fill="#000" opacity="1">13</text><text text-anchor="end" transform="translate(-7,203.00000000000003)" font-family="sans-serif" font-size="10px" fill="#000" opacity="1">14</text><text text-anchor="end" transform="translate(-7,153)" font-family="sans-serif" font-size="10px" fill="#000" opacity="1">15</text><text text-anchor="end" transform="translate(-7,103.00000000000001)" font-family="sans-serif" font-size="10px" fill="#000" opacity="1">16</text><text text-anchor="end" transform="translate(-7,52.999999999999986)" font-family="sans-serif" font-size="10px" fill="#000" opacity="1">17</text><text text-anchor="end" transform="translate(-7,3)" font-family="sans-serif" font-size="10px" fill="#000" opacity="1">18</text></g><g class="mark-rule role-axis-domain" pointer-events="none"><line transform="translate(0,300)" x2="0" y2="-300" stroke="#888" stroke-width="1" opacity="1"/></g><g class="mark-text role-axis-title" pointer-events="none"><text text-anchor="middle" transform="translate(-22.123046875,150) rotate(-90) translate(0,-2)" font-family="sans-serif" font-size="11px" font-weight="bold" fill="#000" opacity="1">Average Age</text></g></g><path class="foreground" aria-hidden="true" d="" pointer-events="none" display="none"/></g></g><g class="mark-group role-scope layer_0_layer_0_pathgroup" role="graphics-object" aria-roledescription="group mark container"><g transform="translate(0,0)"><path class="background" aria-hidden="true" d="M0,0h600v300h-600Z"/><g><g class="mark-line role-mark layer_0_layer_0_marks" role="graphics-object" aria-roledescription="line mark container"><path aria-label="year: 2015; Average Age: 15.5356736782; Gender: Male" role="graphics-symbol" aria-roledescription="line mark" d="M42.857,123.216L128.571,114.581L214.286,113.993L300,108.331L385.714,109.763L471.429,98.042L557.143,97.465" stroke="#dd644e" stroke-width="2"/></g></g><path class="foreground" aria-hidden="true" d="" display="none"/></g><g transform="translate(0,0)"><path class="background" aria-hidden="true" d="M0,0h600v300h-600Z"/><g><g class="mark-line role-mark layer_0_layer_0_marks" role="graphics-object" aria-roledescription="line mark container"><path aria-label="year: 2015; Average Age: 16.0063593005; Gender: Female" role="graphics-symbol" aria-roledescription="line mark" d="M42.857,99.682L128.571,95.856L214.286,96.892L300,89.795L385.714,91.559L471.429,82.494L557.143,82.809" stroke="#367588" stroke-width="2"/></g></g><path class="foreground" aria-hidden="true" d="" display="none"/></g></g><g class="mark-symbol role-mark layer_0_layer_1_marks" role="graphics-object" aria-roledescription="symbol mark container"><path aria-label="year: 2015; Average Age: 15.5356736782; Gender: Male" role="graphics-symbol" aria-roledescription="point" transform="translate(42.857142857142854,123.21631608868708)" d="M2.739,0A2.739,2.739,0,1,1,-2.739,0A2.739,2.739,0,1,1,2.739,0" fill="#dd644e" stroke-width="2" opacity="1"/><path aria-label="year: 2015; Average Age: 16.0063593005; Gender: Female" role="graphics-symbol" aria-roledescription="point" transform="translate(42.857142857142854,99.68203497615313)" d="M2.739,0A2.739,2.739,0,1,1,-2.739,0A2.739,2.739,0,1,1,2.739,0" fill="#367588" stroke-width="2" opacity="1"/><path aria-label="year: 2016; Average Age: 16.0828888889; Gender: Female" role="graphics-symbol" aria-roledescription="point" transform="translate(128.57142857142856,95.85555555555113)" d="M2.739,0A2.739,2.739,0,1,1,-2.739,0A2.739,2.739,0,1,1,2.739,0" fill="#367588" stroke-width="2" opacity="1"/><path aria-label="year: 2016; Average Age: 15.7083784369; Gender: Male" role="graphics-symbol" aria-roledescription="point" transform="translate(128.57142857142856,114.58107815544453)" d="M2.739,0A2.739,2.739,0,1,1,-2.739,0A2.739,2.739,0,1,1,2.739,0" fill="#dd644e" stroke-width="2" opacity="1"/><path aria-label="year: 2017; Average Age: 15.7201360249; Gender: Male" role="graphics-symbol" aria-roledescription="point" transform="translate(214.28571428571428,113.99319875551903)" d="M2.739,0A2.739,2.739,0,1,1,-2.739,0A2.739,2.739,0,1,1,2.739,0" fill="#dd644e" stroke-width="2" opacity="1"/><path aria-label="year: 2017; Average Age: 16.0621623678; Gender: Female" role="graphics-symbol" aria-roledescription="point" transform="translate(214.28571428571428,96.89188160998424)" d="M2.739,0A2.739,2.739,0,1,1,-2.739,0A2.739,2.739,0,1,1,2.739,0" fill="#367588" stroke-width="2" opacity="1"/><path aria-label="year: 2018; Average Age: 16.2040958808; Gender: Female" role="graphics-symbol" aria-roledescription="point" transform="translate(299.99999999999994,89.79520595764397)" d="M2.739,0A2.739,2.739,0,1,1,-2.739,0A2.739,2.739,0,1,1,2.739,0" fill="#367588" stroke-width="2" opacity="1"/><path aria-label="year: 2018; Average Age: 15.8333706106; Gender: Male" role="graphics-symbol" aria-roledescription="point" transform="translate(299.99999999999994,108.33146946991867)" d="M2.739,0A2.739,2.739,0,1,1,-2.739,0A2.739,2.739,0,1,1,2.739,0" fill="#dd644e" stroke-width="2" opacity="1"/><path aria-label="year: 2019; Average Age: 15.8047499608; Gender: Male" role="graphics-symbol" aria-roledescription="point" transform="translate(385.71428571428567,109.76250195955527)" d="M2.739,0A2.739,2.739,0,1,1,-2.739,0A2.739,2.739,0,1,1,2.739,0" fill="#dd644e" stroke-width="2" opacity="1"/><path aria-label="year: 2019; Average Age: 16.1688229225; Gender: Female" role="graphics-symbol" aria-roledescription="point" transform="translate(385.71428571428567,91.55885387729174)" d="M2.739,0A2.739,2.739,0,1,1,-2.739,0A2.739,2.739,0,1,1,2.739,0" fill="#367588" stroke-width="2" opacity="1"/><path aria-label="year: 2020; Average Age: 16.0391656024; Gender: Male" role="graphics-symbol" aria-roledescription="point" transform="translate(471.4285714285714,98.04171988079987)" d="M2.739,0A2.739,2.739,0,1,1,-2.739,0A2.739,2.739,0,1,1,2.739,0" fill="#dd644e" stroke-width="2" opacity="1"/><path aria-label="year: 2020; Average Age: 16.3501205465; Gender: Female" role="graphics-symbol" aria-roledescription="point" transform="translate(471.4285714285714,82.49397267613007)" d="M2.739,0A2.739,2.739,0,1,1,-2.739,0A2.739,2.739,0,1,1,2.739,0" fill="#367588" stroke-width="2" opacity="1"/><path aria-label="year: 2021; Average Age: 16.3438176198; Gender: Female" role="graphics-symbol" aria-roledescription="point" transform="translate(557.1428571428571,82.80911901081556)" d="M2.739,0A2.739,2.739,0,1,1,-2.739,0A2.739,2.739,0,1,1,2.739,0" fill="#367588" stroke-width="2" opacity="1"/><path aria-label="year: 2021; Average Age: 16.0506943853; Gender: Male" role="graphics-symbol" aria-roledescription="point" transform="translate(557.1428571428571,97.46528073613553)" d="M2.739,0A2.739,2.739,0,1,1,-2.739,0A2.739,2.739,0,1,1,2.739,0" fill="#dd644e" stroke-width="2" opacity="1"/></g><g class="mark-rule role-mark layer_1_marks" role="graphics-object" aria-roledescription="rule mark container"><line aria-label="year: 2019" role="graphics-symbol" aria-roledescription="rule mark" transform="translate(385.71428571428567,0)" x2="0" y2="300" stroke="grey"/></g><g class="mark-group role-legend" role="graphics-symbol" aria-roledescription="legend" aria-label="Symbol legend titled 'Gender' for fill color and stroke color with 2 values: Female, Male"><g transform="translate(618,0)"><path class="background" aria-hidden="true" d="M0,0h50v45h-50Z" pointer-events="none"/><g><g class="mark-group role-legend-entry"><g transform="translate(0,16)"><path class="background" aria-hidden="true" d="M0,0h0v0h0Z" pointer-events="none"/><g><g class="mark-group role-scope" role="graphics-object" aria-roledescription="group mark container"><g transform="translate(0,0)"><path class="background" aria-hidden="true" d="M0,0h49.3447265625v12.5h-49.3447265625Z" pointer-events="none" opacity="1"/><g><g class="mark-symbol role-legend-symbol" pointer-events="none"><path transform="translate(6,6)" d="M5,0A5,5,0,1,1,-5,0A5,5,0,1,1,5,0" fill="#367588" stroke="#367588" stroke-width="1.5" opacity="1"/></g><g class="mark-text role-legend-label" pointer-events="none"><text text-anchor="start" transform="translate(16,9)" font-family="sans-serif" font-size="10px" fill="#000" opacity="1">Female</text></g></g><path class="foreground" aria-hidden="true" d="" pointer-events="none" display="none"/></g><g transform="translate(0,16)"><path class="background" aria-hidden="true" d="M0,0h49.3447265625v12.5h-49.3447265625Z" pointer-events="none" opacity="1"/><g><g class="mark-symbol role-legend-symbol" pointer-events="none"><path transform="translate(6,6)" d="M5,0A5,5,0,1,1,-5,0A5,5,0,1,1,5,0" fill="#dd644e" stroke="#dd644e" stroke-width="1.5" opacity="1"/></g><g class="mark-text role-legend-label" pointer-events="none"><text text-anchor="start" transform="translate(16,9)" font-family="sans-serif" font-size="10px" fill="#000" opacity="1">Male</text></g></g><path class="foreground" aria-hidden="true" d="" pointer-events="none" display="none"/></g></g></g><path class="foreground" aria-hidden="true" d="" pointer-events="none" display="none"/></g></g><g class="mark-text role-legend-title" pointer-events="none"><text text-anchor="start" transform="translate(0,9)" font-family="sans-serif" font-size="11px" font-weight="bold" fill="#000" opacity="1">Gender</text></g></g><path class="foreground" aria-hidden="true" d="" pointer-events="none" display="none"/></g></g><g class="mark-group role-title"><g transform="translate(-33.123046875,-52)"><path class="background" aria-hidden="true" d="M0,0h0v0h0Z" pointer-events="none"/><g><g class="mark-text role-title-text" role="graphics-symbol" aria-roledescription="title" aria-label="Title text 'Average Age When First Smoked Cigarette by Year'" pointer-events="none"><text text-anchor="start" transform="translate(0,19)" font-family="Roboto, sans-serif" font-size="24px" font-weight="bold" fill="#000" opacity="1">Average Age When First Smoked Cigarette by Year</text></g><g class="mark-text role-title-subtitle" role="graphics-symbol" aria-roledescription="subtitle" aria-label="Subtitle text 'Increasing over time no matter which gender, especially after &quot;Tobacco 21&quot; (2019).'" pointer-events="none"><text text-anchor="start" transform="translate(0,40)" font-family="Roboto, sans-serif" font-size="16px" fill="#000" opacity="1">Increasing over time no matter which gender, especially after "Tobacco 21" (2019).</text></g></g><path class="foreground" aria-hidden="true" d="" pointer-events="none" display="none"/></g></g></g><path class="foreground" aria-hidden="true" d="" display="none"/></g></g></g></svg>