<svg xmlns="http://www.w3.org/2000/svg" xmlns:xlink="http://www.w3.org/1999/xlink" version="1.1" class="marks" width="1544" height="409" viewBox="0 0 1544 409"><rect width="1544" height="409" fill="white"/><g fill="none" stroke-miterlimit="10" transform="translate(39,57)"><g class="mark-group role-frame root" role="graphics-object" aria-roledescription="group mark container"><g transform="translate(0,0)"><path class="background" aria-hidden="true" d="M0,0h0v0h0Z"/><g><g class="mark-group role-column-title column-title" role="graphics-object" aria-roledescription="group mark container"><g transform="translate(750,326)"><path class="background" aria-hidden="true" d="M0,0h0v0h0Z"/><g><g class="mark-group role-title"><g transform="translate(0,10)"><path class="background" aria-hidden="true" d="M0,0h0v0h0Z" pointer-events="none"/><g><g class="mark-text role-title-text" role="graphics-symbol" aria-roledescription="title" aria-label="Title text 'Age Group'" pointer-events="none"><text text-anchor="middle" transform="translate(0,9)" font-family="sans-serif" font-size="11px" font-weight="bold" fill="#000" opacity="1">Age Group</text></g></g><path class="foreground" aria-hidden="true" d="" pointer-events="none" display="none"/></g></g></g><path class="foreground" aria-hidden="true" d="" display="none"/></g></g><g class="mark-group role-row-header row_header" role="graphics-object" aria-roledescription="group mark container"><g transform="translate(0,0)"><path class="background" aria-hidden="true" d="M0,0h0v300h0Z"/><g><g class="mark-group role-axis" role="graphics-symbol" aria-roledescription="axis" aria-label="Y-axis titled ' Days Smoked in Past 30 Days' for a linear scale with values from 0 to 30"><g transform="translate(0.5,0.5)"><path class="background" aria-hidden="true" d="M0,0h0v0h0Z" pointer-events="none"/><g><g class="mark-rule role-axis-tick" pointer-events="none"><line transform="translate(0,300)" x2="-5" y2="0" stroke="#888" stroke-width="1" opacity="1"/><line transform="translate(0,250)" x2="-5" y2="0" stroke="#888" stroke-width="1" opacity="1"/><line transform="translate(0,200)" x2="-5" y2="0" stroke="#888" stroke-width="1" opacity="1"/><line transform="translate(0,150)" x2="-5" y2="0" stroke="#888" stroke-width="1" opacity="1"/><line transform="translate(0,100)" x2="-5" y2="0" stroke="#888" stroke-width="1" opacity="1"/><line transform="translate(0,50)" x2="-5" y2="0" stroke="#888" stroke-width="1" opacity="1"/><line transform="translate(0,0)" x2="-5" y2="0" stroke="#888" stroke-width="1" opacity="1"/></g><g class="mark-text role-axis-label" pointer-events="none"><text text-anchor="end" transform="translate(-7,303)" font-family="sans-serif" font-size="10px" fill="#000" opacity="1">0</text><text text-anchor="end" transform="translate(-7,253)" font-family="sans-serif" font-size="10px" fill="#000" opacity="1">5</text><text text-anchor="end" transform="translate(-7,203.00000000000003)" font-family="sans-serif" font-size="10px" fill="#000" opacity="1">10</text><text text-anchor="end" transform="translate(-7,153)" font-family="sans-serif" font-size="10px" fill="#000" opacity="1">15</text><text text-anchor="end" transform="translate(-7,103.00000000000001)" font-family="sans-serif" font-size="10px" fill="#000" opacity="1">20</text><text text-anchor="end" transform="translate(-7,52.999999999999986)" font-family="sans-serif" font-size="10px" fill="#000" opacity="1">25</text><text text-anchor="end" transform="translate(-7,3)" font-family="sans-serif" font-size="10px" fill="#000" opacity="1">30</text></g><g class="mark-rule role-axis-domain" pointer-events="none"><line transform="translate(0,300)" x2="0" y2="-300" stroke="#888" stroke-width="1" opacity="1"/></g><g class="mark-text role-axis-title" pointer-events="none"><text text-anchor="middle" transform="translate(-22.123046875,150) rotate(-90) translate(0,-2)" font-family="sans-serif" font-size="11px" font-weight="bold" fill="#000" opacity="1">Days Smoked in Past 30 Days</text></g></g><path class="foreground" aria-hidden="true" d="" pointer-events="none" display="none"/></g></g></g><path class="foreground" aria-hidden="true" d="" display="none"/></g></g><g class="mark-group role-column-footer column_footer" role="graphics-object" aria-roledescription="group mark container"><g transform="translate(0,300)"><path class="background" aria-hidden="true" d="M0,0h300v0h-300Z"/><g><g class="mark-group role-axis" role="graphics-symbol" aria-roledescription="axis" aria-label="X-axis for a linear scale with values from 0.00 to 0.35"><g transform="translate(0.5,0.5)"><path class="background" aria-hidden="true" d="M0,0h0v0h0Z" pointer-events="none"/><g><g class="mark-rule role-axis-tick" pointer-events="none"><line transform="translate(0,0)" x2="0" y2="5" stroke="#888" stroke-width="1" opacity="1"/></g><g class="mark-rule role-axis-domain" pointer-events="none"><line transform="translate(0,0)" x2="300" y2="0" stroke="#888" stroke-width="1" opacity="1"/></g></g><path class="foreground" aria-hidden="true" d="" pointer-events="none" display="none"/></g></g><g class="mark-group role-title"><g transform="translate(150,6)"><path class="background" aria-hidden="true" d="M0,0h0v0h0Z" pointer-events="none"/><g><g class="mark-text role-title-text" role="graphics-symbol" aria-roledescription="title" aria-label="Title text '12-17 Years Old'" pointer-events="none"><text text-anchor="middle" transform="translate(0,8)" font-family="sans-serif" font-size="10px" fill="#000" opacity="1">12-17 Years Old</text></g></g><path class="foreground" aria-hidden="true" d="" pointer-events="none" display="none"/></g></g></g><path class="foreground" aria-hidden="true" d="" display="none"/></g><g transform="translate(300,300)"><path class="background" aria-hidden="true" d="M0,0h300v0h-300Z"/><g><g class="mark-group role-axis" role="graphics-symbol" aria-roledescription="axis" aria-label="X-axis for a linear scale with values from 0.00 to 0.35"><g transform="translate(0.5,0.5)"><path class="background" aria-hidden="true" d="M0,0h0v0h0Z" pointer-events="none"/><g><g class="mark-rule role-axis-tick" pointer-events="none"><line transform="translate(0,0)" x2="0" y2="5" stroke="#888" stroke-width="1" opacity="1"/></g><g class="mark-rule role-axis-domain" pointer-events="none"><line transform="translate(0,0)" x2="300" y2="0" stroke="#888" stroke-width="1" opacity="1"/></g></g><path class="foreground" aria-hidden="true" d="" pointer-events="none" display="none"/></g></g><g class="mark-group role-title"><g transform="translate(150,6)"><path class="background" aria-hidden="true" d="M0,0h0v0h0Z" pointer-events="none"/><g><g class="mark-text role-title-text" role="graphics-symbol" aria-roledescription="title" aria-label="Title text '18-25 Years Old'" pointer-events="none"><text text-anchor="middle" transform="translate(0,8)" font-family="sans-serif" font-size="10px" fill="#000" opacity="1">18-25 Years Old</text></g></g><path class="foreground" aria-hidden="true" d="" pointer-events="none" display="none"/></g></g></g><path class="foreground" aria-hidden="true" d="" display="none"/></g><g transform="translate(600,300)"><path class="background" aria-hidden="true" d="M0,0h300v0h-300Z"/><g><g class="mark-group role-axis" role="graphics-symbol" aria-roledescription="axis" aria-label="X-axis for a linear scale with values from 0.00 to 0.35"><g transform="translate(0.5,0.5)"><path class="background" aria-hidden="true" d="M0,0h0v0h0Z" pointer-events="none"/><g><g class="mark-rule role-axis-tick" pointer-events="none"><line transform="translate(0,0)" x2="0" y2="5" stroke="#888" stroke-width="1" opacity="1"/></g><g class="mark-rule role-axis-domain" pointer-events="none"><line transform="translate(0,0)" x2="300" y2="0" stroke="#888" stroke-width="1" opacity="1"/></g></g><path class="foreground" aria-hidden="true" d="" pointer-events="none" display="none"/></g></g><g class="mark-group role-title"><g transform="translate(150,6)"><path class="background" aria-hidden="true" d="M0,0h0v0h0Z" pointer-events="none"/><g><g class="mark-text role-title-text" role="graphics-symbol" aria-roledescription="title" aria-label="Title text '26-34 Years Old'" pointer-events="none"><text text-anchor="middle" transform="translate(0,8)" font-family="sans-serif" font-size="10px" fill="#000" opacity="1">26-34 Years Old</text></g></g><path class="foreground" aria-hidden="true" d="" pointer-events="none" display="none"/></g></g></g><path class="foreground" aria-hidden="true" d="" display="none"/></g><g transform="translate(900,300)"><path class="background" aria-hidden="true" d="M0,0h300v0h-300Z"/><g><g class="mark-group role-axis" role="graphics-symbol" aria-roledescription="axis" aria-label="X-axis for a linear scale with values from 0.00 to 0.35"><g transform="translate(0.5,0.5)"><path class="background" aria-hidden="true" d="M0,0h0v0h0Z" pointer-events="none"/><g><g class="mark-rule role-axis-tick" pointer-events="none"><line transform="translate(0,0)" x2="0" y2="5" stroke="#888" stroke-width="1" opacity="1"/></g><g class="mark-rule role-axis-domain" pointer-events="none"><line transform="translate(0,0)" x2="300" y2="0" stroke="#888" stroke-width="1" opacity="1"/></g></g><path class="foreground" aria-hidden="true" d="" pointer-events="none" display="none"/></g></g><g class="mark-group role-title"><g transform="translate(150,6)"><path class="background" aria-hidden="true" d="M0,0h0v0h0Z" pointer-events="none"/><g><g class="mark-text role-title-text" role="graphics-symbol" aria-roledescription="title" aria-label="Title text '35-49 Years Old'" pointer-events="none"><text text-anchor="middle" transform="translate(0,8)" font-family="sans-serif" font-size="10px" fill="#000" opacity="1">35-49 Years Old</text></g></g><path class="foreground" aria-hidden="true" d="" pointer-events="none" display="none"/></g></g></g><path class="foreground" aria-hidden="true" d="" display="none"/></g><g transform="translate(1200,300)"><path class="background" aria-hidden="true" d="M0,0h300v0h-300Z"/><g><g class="mark-group role-axis" role="graphics-symbol" aria-roledescription="axis" aria-label="X-axis for a linear scale with values from 0.00 to 0.35"><g transform="translate(0.5,0.5)"><path class="background" aria-hidden="true" d="M0,0h0v0h0Z" pointer-events="none"/><g><g class="mark-rule role-axis-tick" pointer-events="none"><line transform="translate(0,0)" x2="0" y2="5" stroke="#888" stroke-width="1" opacity="1"/></g><g class="mark-rule role-axis-domain" pointer-events="none"><line transform="translate(0,0)" x2="300" y2="0" stroke="#888" stroke-width="1" opacity="1"/></g></g><path class="foreground" aria-hidden="true" d="" pointer-events="none" display="none"/></g></g><g class="mark-group role-title"><g transform="translate(150,6)"><path class="background" aria-hidden="true" d="M0,0h0v0h0Z" pointer-events="none"/><g><g class="mark-text role-title-text" role="graphics-symbol" aria-roledescription="title" aria-label="Title text '50 or Older'" pointer-events="none"><text text-anchor="middle" transform="translate(0,8)" font-family="sans-serif" font-size="10px" fill="#000" opacity="1">50 or Older</text></g></g><path class="foreground" aria-hidden="true" d="" pointer-events="none" display="none"/></g></g></g><path class="foreground" aria-hidden="true" d="" display="none"/></g></g><g class="mark-group role-scope cell" role="graphics-object" aria-roledescription="group mark container"><g transform="translate(0,0)"><path class="background" aria-hidden="true" d="M0,0h300v300h-300Z"/><g><g class="mark-group role-scope child_pathgroup" role="graphics-object" aria-roledescription="group mark container"><g transform="translate(0,0)"><path class="background" aria-hidden="true" d="M0,0h300v300h-300Z"/><g><g class="mark-area role-mark child_marks" role="graphics-object" aria-roledescription="area mark container"><path aria-label="density: 0.0264150251029;  Days Smoked in Past 30 Days: 30; CATAG3: 12-17 Years Old" role="graphics-symbol" aria-roledescription="area mark" d="M142.573,0L142.566,1.45L142.454,2.9L142.239,4.35L141.929,5.8L141.533,7.25L141.062,8.7L140.531,10.15L139.952,11.6L139.342,13.05L138.715,14.5L138.086,15.95L137.469,17.4L136.875,18.85L136.316,20.3L135.8,21.75L135.334,23.2L134.923,24.65L134.57,26.1L134.276,27.55L134.04,29L133.861,30.45L133.735,31.9L133.658,33.35L133.624,34.8L133.628,36.25L133.664,37.7L133.725,39.15L133.805,40.6L133.899,42.05L134,43.5L134.104,44.95L134.205,46.4L134.301,47.85L134.387,49.3L134.461,50.75L134.521,52.2L134.566,53.65L134.597,55.1L134.611,56.55L134.611,58L134.598,59.45L134.573,60.9L134.538,62.35L134.494,63.8L134.445,65.25L134.393,66.7L134.34,68.15L134.289,69.6L134.242,71.05L134.202,72.5L134.171,73.95L134.15,75.4L134.143,76.85L134.149,78.3L134.17,79.75L134.206,81.2L134.256,82.65L134.319,84.1L134.393,85.55L134.477,87L134.567,88.45L134.659,89.9L134.751,91.35L134.837,92.8L134.916,94.25L134.982,95.7L135.034,97.15L135.067,98.6L135.081,100.05L135.074,101.5L135.046,102.95L134.997,104.4L134.928,105.85L134.842,107.3L134.741,108.75L134.629,110.2L134.51,111.65L134.387,113.1L134.265,114.55L134.147,116L134.039,117.45L133.944,118.9L133.866,120.35L133.808,121.8L133.772,123.25L133.76,124.7L133.774,126.15L133.814,127.6L133.88,129.05L133.97,130.5L134.082,131.95L134.215,133.4L134.363,134.85L134.523,136.3L134.689,137.75L134.858,139.2L135.022,140.65L135.178,142.1L135.319,143.55L135.441,145L135.541,146.45L135.615,147.9L135.66,149.35L135.677,150.8L135.664,152.25L135.624,153.7L135.559,155.15L135.47,156.6L135.363,158.05L135.241,159.5L135.109,160.95L134.971,162.4L134.832,163.85L134.695,165.3L134.563,166.75L134.44,168.2L134.327,169.65L134.226,171.1L134.136,172.55L134.058,174L133.993,175.45L133.937,176.9L133.892,178.35L133.855,179.8L133.825,181.25L133.802,182.7L133.784,184.15L133.771,185.6L133.763,187.05L133.758,188.5L133.758,189.95L133.761,191.4L133.769,192.85L133.782,194.3L133.8,195.75L133.823,197.2L133.853,198.65L133.89,200.1L133.934,201.55L133.987,203L134.05,204.45L134.124,205.9L134.211,207.35L134.314,208.8L134.436,210.25L134.579,211.7L134.748,213.15L134.947,214.6L135.182,216.05L135.457,217.5L135.779,218.95L136.152,220.4L136.584,221.85L137.078,223.3L137.641,224.75L138.277,226.2L138.989,227.65L139.779,229.1L140.649,230.55L141.597,232L142.622,233.45L143.72,234.9L144.886,236.35L146.114,237.8L147.397,239.25L148.726,240.7L150.094,242.15L151.494,243.6L152.917,245.05L154.359,246.5L155.815,247.95L157.283,249.4L158.762,250.85L160.253,252.3L161.762,253.75L163.292,255.2L164.852,256.65L166.446,258.1L168.084,259.55L169.77,261L171.508,262.45L173.3,263.9L175.142,265.35L177.025,266.8L178.939,268.25L180.862,269.7L182.771,271.15L184.636,272.6L186.421,274.05L188.087,275.5L189.592,276.95L190.893,278.4L191.945,279.85L192.708,281.3L193.145,282.75L193.225,284.2L192.924,285.65L192.228,287.1L191.133,288.55L189.644,290L72.862,290L71.373,288.55L70.277,287.1L69.582,285.65L69.281,284.2L69.361,282.75L69.798,281.3L70.561,279.85L71.613,278.4L72.913,276.95L74.418,275.5L76.084,274.05L77.869,272.6L79.734,271.15L81.643,269.7L83.567,268.25L85.48,266.8L87.364,265.35L89.206,263.9L90.997,262.45L92.735,261L94.422,259.55L96.059,258.1L97.654,256.65L99.213,255.2L100.744,253.75L102.252,252.3L103.744,250.85L105.223,249.4L106.69,247.95L108.146,246.5L109.588,245.05L111.012,243.6L112.411,242.15L113.779,240.7L115.109,239.25L116.391,237.8L117.619,236.35L118.785,234.9L119.883,233.45L120.908,232L121.856,230.55L122.726,229.1L123.516,227.65L124.228,226.2L124.864,224.75L125.427,223.3L125.922,221.85L126.353,220.4L126.727,218.95L127.048,217.5L127.323,216.05L127.558,214.6L127.757,213.15L127.927,211.7L128.07,210.25L128.191,208.8L128.294,207.35L128.382,205.9L128.456,204.45L128.519,203L128.572,201.55L128.616,200.1L128.652,198.65L128.682,197.2L128.706,195.75L128.724,194.3L128.736,192.85L128.744,191.4L128.748,189.95L128.747,188.5L128.743,187.05L128.734,185.6L128.721,184.15L128.703,182.7L128.68,181.25L128.651,179.8L128.614,178.35L128.568,176.9L128.513,175.45L128.447,174L128.37,172.55L128.28,171.1L128.178,169.65L128.065,168.2L127.942,166.75L127.811,165.3L127.674,163.85L127.534,162.4L127.396,160.95L127.264,159.5L127.142,158.05L127.035,156.6L126.947,155.15L126.881,153.7L126.841,152.25L126.829,150.8L126.845,149.35L126.891,147.9L126.965,146.45L127.064,145L127.187,143.55L127.328,142.1L127.483,140.65L127.648,139.2L127.816,137.75L127.983,136.3L128.143,134.85L128.291,133.4L128.423,131.95L128.536,130.5L128.626,129.05L128.691,127.6L128.731,126.15L128.745,124.7L128.734,123.25L128.698,121.8L128.639,120.35L128.561,118.9L128.466,117.45L128.358,116L128.241,114.55L128.119,113.1L127.996,111.65L127.876,110.2L127.764,108.75L127.663,107.3L127.577,105.85L127.509,104.4L127.46,102.95L127.431,101.5L127.424,100.05L127.438,98.6L127.472,97.15L127.523,95.7L127.59,94.25L127.668,92.8L127.755,91.35L127.846,89.9L127.939,88.45L128.029,87L128.112,85.55L128.187,84.1L128.25,82.65L128.3,81.2L128.335,79.75L128.356,78.3L128.362,76.85L128.355,75.4L128.335,73.95L128.304,72.5L128.264,71.05L128.217,69.6L128.166,68.15L128.113,66.7L128.06,65.25L128.011,63.8L127.968,62.35L127.933,60.9L127.907,59.45L127.894,58L127.894,56.55L127.909,55.1L127.939,53.65L127.984,52.2L128.045,50.75L128.119,49.3L128.205,47.85L128.3,46.4L128.402,44.95L128.505,43.5L128.607,42.05L128.7,40.6L128.781,39.15L128.842,37.7L128.878,36.25L128.882,34.8L128.848,33.35L128.77,31.9L128.644,30.45L128.465,29L128.23,27.55L127.936,26.1L127.583,24.65L127.172,23.2L126.706,21.75L126.19,20.3L125.631,18.85L125.037,17.4L124.419,15.95L123.79,14.5L123.163,13.05L122.553,11.6L121.975,10.15L121.443,8.7L120.973,7.25L120.577,5.8L120.267,4.35L120.052,2.9L119.939,1.45L119.932,0Z" fill="rgb(148, 206, 207)"/></g></g><path class="foreground" aria-hidden="true" d="" display="none"/></g></g></g><path class="foreground" aria-hidden="true" d="" display="none"/></g><g transform="translate(300,0)"><path class="background" aria-hidden="true" d="M0,0h300v300h-300Z"/><g><g class="mark-group role-scope child_pathgroup" role="graphics-object" aria-roledescription="group mark container"><g transform="translate(0,0)"><path class="background" aria-hidden="true" d="M0,0h300v300h-300Z"/><g><g class="mark-area role-mark child_marks" role="graphics-object" aria-roledescription="area mark container"><path aria-label="density: 0.048686793418;  Days Smoked in Past 30 Days: 30; CATAG3: 18-25 Years Old" role="graphics-symbol" aria-roledescription="area mark" d="M152.119,0L152.183,1.45L152.202,2.9L152.176,4.35L152.106,5.8L151.993,7.25L151.837,8.7L151.641,10.15L151.407,11.6L151.135,13.05L150.828,14.5L150.49,15.95L150.121,17.4L149.726,18.85L149.306,20.3L148.864,21.75L148.404,23.2L147.929,24.65L147.441,26.1L146.943,27.55L146.438,29L145.929,30.45L145.418,31.9L144.909,33.35L144.402,34.8L143.901,36.25L143.408,37.7L142.924,39.15L142.451,40.6L141.991,42.05L141.545,43.5L141.114,44.95L140.699,46.4L140.301,47.85L139.92,49.3L139.558,50.75L139.213,52.2L138.887,53.65L138.579,55.1L138.289,56.55L138.017,58L137.763,59.45L137.527,60.9L137.307,62.35L137.103,63.8L136.916,65.25L136.743,66.7L136.584,68.15L136.44,69.6L136.308,71.05L136.188,72.5L136.08,73.95L135.982,75.4L135.895,76.85L135.817,78.3L135.747,79.75L135.685,81.2L135.631,82.65L135.583,84.1L135.541,85.55L135.505,87L135.474,88.45L135.447,89.9L135.424,91.35L135.405,92.8L135.39,94.25L135.377,95.7L135.368,97.15L135.36,98.6L135.355,100.05L135.353,101.5L135.352,102.95L135.353,104.4L135.355,105.85L135.36,107.3L135.366,108.75L135.373,110.2L135.382,111.65L135.393,113.1L135.406,114.55L135.419,116L135.435,117.45L135.452,118.9L135.471,120.35L135.491,121.8L135.513,123.25L135.537,124.7L135.562,126.15L135.589,127.6L135.618,129.05L135.648,130.5L135.679,131.95L135.712,133.4L135.747,134.85L135.783,136.3L135.82,137.75L135.858,139.2L135.898,140.65L135.939,142.1L135.98,143.55L136.023,145L136.067,146.45L136.111,147.9L136.157,149.35L136.203,150.8L136.25,152.25L136.298,153.7L136.346,155.15L136.396,156.6L136.446,158.05L136.498,159.5L136.55,160.95L136.604,162.4L136.658,163.85L136.714,165.3L136.771,166.75L136.829,168.2L136.889,169.65L136.951,171.1L137.014,172.55L137.079,174L137.147,175.45L137.216,176.9L137.288,178.35L137.362,179.8L137.439,181.25L137.518,182.7L137.601,184.15L137.686,185.6L137.775,187.05L137.868,188.5L137.965,189.95L138.065,191.4L138.17,192.85L138.28,194.3L138.394,195.75L138.514,197.2L138.639,198.65L138.771,200.1L138.908,201.55L139.052,203L139.203,204.45L139.362,205.9L139.529,207.35L139.703,208.8L139.886,210.25L140.079,211.7L140.28,213.15L140.492,214.6L140.713,216.05L140.945,217.5L141.187,218.95L141.44,220.4L141.704,221.85L141.979,223.3L142.265,224.75L142.562,226.2L142.87,227.65L143.188,229.1L143.517,230.55L143.855,232L144.203,233.45L144.559,234.9L144.924,236.35L145.295,237.8L145.673,239.25L146.056,240.7L146.442,242.15L146.831,243.6L147.221,245.05L147.611,246.5L147.999,247.95L148.383,249.4L148.761,250.85L149.132,252.3L149.494,253.75L149.845,255.2L150.183,256.65L150.505,258.1L150.811,259.55L151.097,261L151.362,262.45L151.605,263.9L151.822,265.35L152.014,266.8L152.177,268.25L152.311,269.7L152.414,271.15L152.485,272.6L152.522,274.05L152.526,275.5L152.495,276.95L152.429,278.4L152.327,279.85L152.19,281.3L152.018,282.75L151.81,284.2L151.569,285.65L151.293,287.1L150.986,288.55L150.647,290L111.859,290L111.52,288.55L111.212,287.1L110.937,285.65L110.695,284.2L110.488,282.75L110.315,281.3L110.178,279.85L110.077,278.4L110.011,276.95L109.98,275.5L109.983,274.05L110.021,272.6L110.092,271.15L110.195,269.7L110.328,268.25L110.492,266.8L110.683,265.35L110.901,263.9L111.143,262.45L111.409,261L111.695,259.55L112,258.1L112.323,256.65L112.66,255.2L113.011,253.75L113.373,252.3L113.744,250.85L114.123,249.4L114.507,247.95L114.894,246.5L115.284,245.05L115.674,243.6L116.063,242.15L116.45,240.7L116.832,239.25L117.21,237.8L117.582,236.35L117.946,234.9L118.303,233.45L118.65,232L118.989,230.55L119.318,229.1L119.636,227.65L119.944,226.2L120.241,224.75L120.527,223.3L120.802,221.85L121.065,220.4L121.319,218.95L121.561,217.5L121.792,216.05L122.014,214.6L122.225,213.15L122.427,211.7L122.619,210.25L122.802,208.8L122.977,207.35L123.143,205.9L123.302,204.45L123.453,203L123.597,201.55L123.735,200.1L123.866,198.65L123.991,197.2L124.111,195.75L124.226,194.3L124.335,192.85L124.44,191.4L124.541,189.95L124.637,188.5L124.73,187.05L124.819,185.6L124.905,184.15L124.987,182.7L125.067,181.25L125.144,179.8L125.218,178.35L125.29,176.9L125.359,175.45L125.426,174L125.491,172.55L125.555,171.1L125.616,169.65L125.676,168.2L125.735,166.75L125.792,165.3L125.847,163.85L125.902,162.4L125.955,160.95L126.008,159.5L126.059,158.05L126.109,156.6L126.159,155.15L126.208,153.7L126.256,152.25L126.303,150.8L126.349,149.35L126.394,147.9L126.439,146.45L126.483,145L126.525,143.55L126.567,142.1L126.608,140.65L126.647,139.2L126.686,137.75L126.723,136.3L126.759,134.85L126.793,133.4L126.826,131.95L126.858,130.5L126.888,129.05L126.916,127.6L126.943,126.15L126.969,124.7L126.992,123.25L127.014,121.8L127.035,120.35L127.053,118.9L127.071,117.45L127.086,116L127.1,114.55L127.112,113.1L127.123,111.65L127.132,110.2L127.14,108.75L127.146,107.3L127.15,105.85L127.153,104.4L127.154,102.95L127.153,101.5L127.15,100.05L127.145,98.6L127.138,97.15L127.128,95.7L127.116,94.25L127.1,92.8L127.081,91.35L127.059,89.9L127.032,88.45L127.001,87L126.964,85.55L126.923,84.1L126.875,82.65L126.82,81.2L126.759,79.75L126.689,78.3L126.611,76.85L126.523,75.4L126.426,73.95L126.317,72.5L126.198,71.05L126.066,69.6L125.921,68.15L125.763,66.7L125.59,65.25L125.402,63.8L125.199,62.35L124.979,60.9L124.742,59.45L124.488,58L124.216,56.55L123.927,55.1L123.619,53.65L123.293,52.2L122.948,50.75L122.585,49.3L122.204,47.85L121.806,46.4L121.391,44.95L120.96,43.5L120.514,42.05L120.054,40.6L119.581,39.15L119.097,37.7L118.604,36.25L118.103,34.8L117.597,33.35L117.087,31.9L116.577,30.45L116.068,29L115.563,27.55L115.065,26.1L114.577,24.65L114.101,23.2L113.641,21.75L113.2,20.3L112.78,18.85L112.384,17.4L112.016,15.95L111.677,14.5L111.371,13.05L111.099,11.6L110.864,10.15L110.668,8.7L110.513,7.25L110.4,5.8L110.33,4.35L110.304,2.9L110.323,1.45L110.387,0Z" fill="rgb(110, 184, 197)"/></g></g><path class="foreground" aria-hidden="true" d="" display="none"/></g></g></g><path class="foreground" aria-hidden="true" d="" display="none"/></g><g transform="translate(600,0)"><path class="background" aria-hidden="true" d="M0,0h300v300h-300Z"/><g><g class="mark-group role-scope child_pathgroup" role="graphics-object" aria-roledescription="group mark container"><g transform="translate(0,0)"><path class="background" aria-hidden="true" d="M0,0h300v300h-300Z"/><g><g class="mark-area role-mark child_marks" role="graphics-object" aria-roledescription="area mark container"><path aria-label="density: 0.0889412661756;  Days Smoked in Past 30 Days: 30; CATAG3: 26-34 Years Old" role="graphics-symbol" aria-roledescription="area mark" d="M169.37,0L169.403,1.45L169.333,2.9L169.16,4.35L168.887,5.8L168.516,7.25L168.052,8.7L167.497,10.15L166.858,11.6L166.139,13.05L165.347,14.5L164.488,15.95L163.569,17.4L162.598,18.85L161.581,20.3L160.526,21.75L159.441,23.2L158.333,24.65L157.21,26.1L156.078,27.55L154.944,29L153.814,30.45L152.696,31.9L151.593,33.35L150.512,34.8L149.457,36.25L148.432,37.7L147.441,39.15L146.487,40.6L145.572,42.05L144.699,43.5L143.869,44.95L143.082,46.4L142.341,47.85L141.645,49.3L140.994,50.75L140.388,52.2L139.825,53.65L139.305,55.1L138.828,56.55L138.39,58L137.991,59.45L137.63,60.9L137.303,62.35L137.01,63.8L136.749,65.25L136.517,66.7L136.312,68.15L136.134,69.6L135.978,71.05L135.845,72.5L135.731,73.95L135.636,75.4L135.556,76.85L135.492,78.3L135.44,79.75L135.4,81.2L135.37,82.65L135.349,84.1L135.335,85.55L135.328,87L135.325,88.45L135.327,89.9L135.332,91.35L135.339,92.8L135.348,94.25L135.358,95.7L135.368,97.15L135.378,98.6L135.387,100.05L135.395,101.5L135.402,102.95L135.408,104.4L135.412,105.85L135.414,107.3L135.414,108.75L135.413,110.2L135.41,111.65L135.406,113.1L135.4,114.55L135.392,116L135.384,117.45L135.374,118.9L135.364,120.35L135.353,121.8L135.342,123.25L135.33,124.7L135.318,126.15L135.306,127.6L135.294,129.05L135.283,130.5L135.271,131.95L135.26,133.4L135.25,134.85L135.24,136.3L135.23,137.75L135.22,139.2L135.211,140.65L135.203,142.1L135.195,143.55L135.187,145L135.179,146.45L135.172,147.9L135.165,149.35L135.158,150.8L135.151,152.25L135.145,153.7L135.139,155.15L135.134,156.6L135.129,158.05L135.125,159.5L135.121,160.95L135.118,162.4L135.116,163.85L135.115,165.3L135.115,166.75L135.117,168.2L135.12,169.65L135.124,171.1L135.131,172.55L135.139,174L135.149,175.45L135.162,176.9L135.177,178.35L135.195,179.8L135.215,181.25L135.238,182.7L135.264,184.15L135.292,185.6L135.324,187.05L135.359,188.5L135.397,189.95L135.439,191.4L135.484,192.85L135.533,194.3L135.585,195.75L135.641,197.2L135.701,198.65L135.764,200.1L135.832,201.55L135.904,203L135.98,204.45L136.061,205.9L136.146,207.35L136.236,208.8L136.331,210.25L136.431,211.7L136.536,213.15L136.646,214.6L136.761,216.05L136.882,217.5L137.008,218.95L137.139,220.4L137.277,221.85L137.42,223.3L137.568,224.75L137.722,226.2L137.881,227.65L138.046,229.1L138.215,230.55L138.39,232L138.569,233.45L138.752,234.9L138.939,236.35L139.13,237.8L139.324,239.25L139.52,240.7L139.717,242.15L139.916,243.6L140.115,245.05L140.314,246.5L140.512,247.95L140.708,249.4L140.901,250.85L141.089,252.3L141.273,253.75L141.451,255.2L141.622,256.65L141.785,258.1L141.939,259.55L142.082,261L142.214,262.45L142.334,263.9L142.44,265.35L142.531,266.8L142.608,268.25L142.667,269.7L142.71,271.15L142.735,272.6L142.742,274.05L142.729,275.5L142.697,276.95L142.644,278.4L142.572,279.85L142.48,281.3L142.368,282.75L142.235,284.2L142.084,285.65L141.913,287.1L141.724,288.55L141.517,290L120.989,290L120.782,288.55L120.593,287.1L120.422,285.65L120.27,284.2L120.138,282.75L120.025,281.3L119.933,279.85L119.861,278.4L119.809,276.95L119.777,275.5L119.764,274.05L119.77,272.6L119.795,271.15L119.838,269.7L119.898,268.25L119.974,266.8L120.066,265.35L120.172,263.9L120.292,262.45L120.424,261L120.567,259.55L120.721,258.1L120.883,256.65L121.054,255.2L121.232,253.75L121.416,252.3L121.605,250.85L121.798,249.4L121.993,247.95L122.191,246.5L122.39,245.05L122.589,243.6L122.788,242.15L122.986,240.7L123.182,239.25L123.375,237.8L123.566,236.35L123.753,234.9L123.937,233.45L124.116,232L124.29,230.55L124.46,229.1L124.624,227.65L124.784,226.2L124.937,224.75L125.086,223.3L125.229,221.85L125.366,220.4L125.498,218.95L125.624,217.5L125.745,216.05L125.86,214.6L125.97,213.15L126.075,211.7L126.174,210.25L126.269,208.8L126.359,207.35L126.444,205.9L126.525,204.45L126.601,203L126.673,201.55L126.741,200.1L126.805,198.65L126.865,197.2L126.921,195.75L126.973,194.3L127.021,192.85L127.066,191.4L127.108,189.95L127.146,188.5L127.181,187.05L127.213,185.6L127.242,184.15L127.268,182.7L127.291,181.25L127.311,179.8L127.328,178.35L127.343,176.9L127.356,175.45L127.367,174L127.375,172.55L127.381,171.1L127.386,169.65L127.389,168.2L127.39,166.75L127.39,165.3L127.389,163.85L127.387,162.4L127.384,160.95L127.381,159.5L127.376,158.05L127.371,156.6L127.366,155.15L127.36,153.7L127.354,152.25L127.347,150.8L127.341,149.35L127.334,147.9L127.326,146.45L127.319,145L127.311,143.55L127.303,142.1L127.294,140.65L127.285,139.2L127.276,137.75L127.266,136.3L127.256,134.85L127.245,133.4L127.234,131.95L127.223,130.5L127.211,129.05L127.199,127.6L127.187,126.15L127.176,124.7L127.164,123.25L127.152,121.8L127.142,120.35L127.131,118.9L127.122,117.45L127.113,116L127.106,114.55L127.1,113.1L127.095,111.65L127.092,110.2L127.091,108.75L127.092,107.3L127.094,105.85L127.098,104.4L127.103,102.95L127.11,101.5L127.119,100.05L127.128,98.6L127.138,97.15L127.148,95.7L127.157,94.25L127.166,92.8L127.174,91.35L127.178,89.9L127.18,88.45L127.178,87L127.17,85.55L127.156,84.1L127.135,82.65L127.105,81.2L127.065,79.75L127.014,78.3L126.949,76.85L126.87,75.4L126.774,73.95L126.661,72.5L126.527,71.05L126.372,69.6L126.193,68.15L125.989,66.7L125.757,65.25L125.495,63.8L125.202,62.35L124.876,60.9L124.514,59.45L124.115,58L123.678,56.55L123.2,55.1L122.68,53.65L122.118,52.2L121.512,50.75L120.86,49.3L120.164,47.85L119.423,46.4L118.637,44.95L117.807,43.5L116.933,42.05L116.018,40.6L115.064,39.15L114.073,37.7L113.048,36.25L111.993,34.8L110.912,33.35L109.81,31.9L108.691,30.45L107.562,29L106.428,27.55L105.296,26.1L104.172,24.65L103.064,23.2L101.979,21.75L100.925,20.3L99.908,18.85L98.936,17.4L98.018,15.95L97.159,14.5L96.367,13.05L95.648,11.6L95.008,10.15L94.454,8.7L93.989,7.25L93.619,5.8L93.346,4.35L93.173,2.9L93.102,1.45L93.135,0Z" fill="rgb(69, 162, 185)"/></g></g><path class="foreground" aria-hidden="true" d="" display="none"/></g></g></g><path class="foreground" aria-hidden="true" d="" display="none"/></g><g transform="translate(900,0)"><path class="background" aria-hidden="true" d="M0,0h300v300h-300Z"/><g><g class="mark-group role-scope child_pathgroup" role="graphics-object" aria-roledescription="group mark container"><g transform="translate(0,0)"><path class="background" aria-hidden="true" d="M0,0h300v300h-300Z"/><g><g class="mark-area role-mark child_marks" role="graphics-object" aria-roledescription="area mark container"><path aria-label="density: 0.161074229733;  Days Smoked in Past 30 Days: 30; CATAG3: 35-49 Years Old" role="graphics-symbol" aria-roledescription="area mark" d="M200.285,0L200.146,1.45L199.506,2.9L198.38,4.35L196.795,5.8L194.785,7.25L192.396,8.7L189.678,10.15L186.688,11.6L183.485,13.05L180.128,14.5L176.679,15.95L173.193,17.4L169.725,18.85L166.324,20.3L163.032,21.75L159.886,23.2L156.915,24.65L154.142,26.1L151.581,27.55L149.243,29L147.129,30.45L145.238,31.9L143.562,33.35L142.093,34.8L140.816,36.25L139.717,37.7L138.778,39.15L137.984,40.6L137.317,42.05L136.759,43.5L136.297,44.95L135.914,46.4L135.597,47.85L135.335,49.3L135.118,50.75L134.937,52.2L134.784,53.65L134.654,55.1L134.542,56.55L134.446,58L134.363,59.45L134.292,60.9L134.232,62.35L134.183,63.8L134.146,65.25L134.121,66.7L134.109,68.15L134.11,69.6L134.126,71.05L134.157,72.5L134.202,73.95L134.262,75.4L134.336,76.85L134.422,78.3L134.52,79.75L134.627,81.2L134.742,82.65L134.86,84.1L134.98,85.55L135.099,87L135.212,88.45L135.318,89.9L135.413,91.35L135.493,92.8L135.558,94.25L135.604,95.7L135.63,97.15L135.635,98.6L135.619,100.05L135.581,101.5L135.523,102.95L135.446,104.4L135.353,105.85L135.246,107.3L135.127,108.75L135.001,110.2L134.871,111.65L134.74,113.1L134.613,114.55L134.493,116L134.384,117.45L134.288,118.9L134.207,120.35L134.145,121.8L134.102,123.25L134.08,124.7L134.079,126.15L134.098,127.6L134.136,129.05L134.192,130.5L134.264,131.95L134.35,133.4L134.446,134.85L134.548,136.3L134.655,137.75L134.762,139.2L134.866,140.65L134.963,142.1L135.051,143.55L135.127,145L135.188,146.45L135.233,147.9L135.26,149.35L135.269,150.8L135.259,152.25L135.232,153.7L135.187,155.15L135.128,156.6L135.055,158.05L134.971,159.5L134.879,160.95L134.781,162.4L134.68,163.85L134.58,165.3L134.483,166.75L134.391,168.2L134.307,169.65L134.233,171.1L134.171,172.55L134.121,174L134.084,175.45L134.061,176.9L134.052,178.35L134.056,179.8L134.072,181.25L134.1,182.7L134.138,184.15L134.185,185.6L134.239,187.05L134.299,188.5L134.362,189.95L134.428,191.4L134.495,192.85L134.561,194.3L134.626,195.75L134.688,197.2L134.748,198.65L134.805,200.1L134.858,201.55L134.909,203L134.957,204.45L135.003,205.9L135.048,207.35L135.092,208.8L135.137,210.25L135.183,211.7L135.231,213.15L135.281,214.6L135.335,216.05L135.392,217.5L135.454,218.95L135.519,220.4L135.588,221.85L135.662,223.3L135.74,224.75L135.821,226.2L135.905,227.65L135.993,229.1L136.084,230.55L136.178,232L136.274,233.45L136.374,234.9L136.477,236.35L136.583,237.8L136.693,239.25L136.809,240.7L136.929,242.15L137.056,243.6L137.191,245.05L137.334,246.5L137.486,247.95L137.649,249.4L137.824,250.85L138.01,252.3L138.21,253.75L138.422,255.2L138.648,256.65L138.887,258.1L139.139,259.55L139.401,261L139.674,262.45L139.953,263.9L140.237,265.35L140.522,266.8L140.805,268.25L141.081,269.7L141.345,271.15L141.593,272.6L141.819,274.05L142.017,275.5L142.184,276.95L142.313,278.4L142.401,279.85L142.442,281.3L142.434,282.75L142.375,284.2L142.262,285.65L142.096,287.1L141.876,288.55L141.604,290L120.901,290L120.629,288.55L120.41,287.1L120.243,285.65L120.13,284.2L120.071,282.75L120.063,281.3L120.105,279.85L120.192,278.4L120.322,276.95L120.488,275.5L120.687,274.05L120.913,272.6L121.161,271.15L121.425,269.7L121.701,268.25L121.983,266.8L122.269,265.35L122.553,263.9L122.832,262.45L123.104,261L123.367,259.55L123.618,258.1L123.857,256.65L124.083,255.2L124.296,253.75L124.495,252.3L124.682,250.85L124.856,249.4L125.019,247.95L125.172,246.5L125.315,245.05L125.449,243.6L125.576,242.15L125.697,240.7L125.812,239.25L125.922,237.8L126.029,236.35L126.132,234.9L126.231,233.45L126.328,232L126.421,230.55L126.512,229.1L126.6,227.65L126.685,226.2L126.766,224.75L126.843,223.3L126.917,221.85L126.987,220.4L127.052,218.95L127.113,217.5L127.17,216.05L127.224,214.6L127.275,213.15L127.322,211.7L127.368,210.25L127.413,208.8L127.457,207.35L127.502,205.9L127.548,204.45L127.596,203L127.647,201.55L127.701,200.1L127.757,198.65L127.817,197.2L127.88,195.75L127.945,194.3L128.011,192.85L128.077,191.4L128.143,189.95L128.207,188.5L128.266,187.05L128.32,185.6L128.367,184.15L128.405,182.7L128.433,181.25L128.45,179.8L128.454,178.35L128.445,176.9L128.422,175.45L128.385,174L128.335,172.55L128.272,171.1L128.198,169.65L128.114,168.2L128.023,166.75L127.925,165.3L127.825,163.85L127.725,162.4L127.627,160.95L127.535,159.5L127.451,158.05L127.378,156.6L127.318,155.15L127.274,153.7L127.246,152.25L127.237,150.8L127.246,149.35L127.273,147.9L127.318,146.45L127.379,145L127.454,143.55L127.542,142.1L127.64,140.65L127.743,139.2L127.85,137.75L127.957,136.3L128.06,134.85L128.156,133.4L128.241,131.95L128.313,130.5L128.369,129.05L128.408,127.6L128.427,126.15L128.425,124.7L128.403,123.25L128.36,121.8L128.298,120.35L128.218,118.9L128.122,117.45L128.012,116L127.892,114.55L127.765,113.1L127.635,111.65L127.504,110.2L127.378,108.75L127.26,107.3L127.152,105.85L127.059,104.4L126.982,102.95L126.925,101.5L126.887,100.05L126.87,98.6L126.875,97.15L126.902,95.7L126.948,94.25L127.012,92.8L127.093,91.35L127.188,89.9L127.293,88.45L127.407,87L127.525,85.55L127.645,84.1L127.764,82.65L127.878,81.2L127.985,79.75L128.083,78.3L128.17,76.85L128.243,75.4L128.303,73.95L128.349,72.5L128.379,71.05L128.395,69.6L128.397,68.15L128.385,66.7L128.36,65.25L128.322,63.8L128.274,62.35L128.214,60.9L128.142,59.45L128.059,58L127.963,56.55L127.852,55.1L127.722,53.65L127.569,52.2L127.387,50.75L127.17,49.3L126.908,47.85L126.592,46.4L126.209,44.95L125.746,43.5L125.189,42.05L124.521,40.6L123.727,39.15L122.789,37.7L121.689,36.25L120.412,34.8L118.943,33.35L117.268,31.9L115.377,30.45L113.263,29L110.924,27.55L108.363,26.1L105.59,24.65L102.619,23.2L99.473,21.75L96.182,20.3L92.781,18.85L89.313,17.4L85.827,15.95L82.377,14.5L79.021,13.05L75.817,11.6L72.827,10.15L70.11,8.7L67.72,7.25L65.711,5.8L64.125,4.35L62.999,2.9L62.359,1.45L62.221,0Z" fill="rgb(53, 137, 169)"/></g></g><path class="foreground" aria-hidden="true" d="" display="none"/></g></g></g><path class="foreground" aria-hidden="true" d="" display="none"/></g><g transform="translate(1200,0)"><path class="background" aria-hidden="true" d="M0,0h300v300h-300Z"/><g><g class="mark-group role-scope child_pathgroup" role="graphics-object" aria-roledescription="group mark container"><g transform="translate(0,0)"><path class="background" aria-hidden="true" d="M0,0h300v300h-300Z"/><g><g class="mark-area role-mark child_marks" role="graphics-object" aria-roledescription="area mark container"><path aria-label="density: 0.306256382986;  Days Smoked in Past 30 Days: 30; CATAG3: 50 or Older" role="graphics-symbol" aria-roledescription="area mark" d="M262.505,0L261.207,1.45L256.908,2.9L249.928,4.35L240.757,5.8L230.003,7.25L218.326,8.7L206.368,10.15L194.705,11.6L183.798,13.05L173.976,14.5L165.431,15.95L158.232,17.4L152.342,18.85L147.655,20.3L144.017,21.75L141.257,23.2L139.205,24.65L137.708,26.1L136.635,27.55L135.882,29L135.369,30.45L135.037,31.9L134.845,33.35L134.762,34.8L134.765,36.25L134.836,37.7L134.958,39.15L135.113,40.6L135.284,42.05L135.452,43.5L135.598,44.95L135.707,46.4L135.764,47.85L135.76,49.3L135.69,50.75L135.554,52.2L135.359,53.65L135.115,55.1L134.836,56.55L134.536,58L134.233,59.45L133.939,60.9L133.666,62.35L133.425,63.8L133.219,65.25L133.051,66.7L132.921,68.15L132.827,69.6L132.767,71.05L132.737,72.5L132.736,73.95L132.763,75.4L132.819,76.85L132.908,78.3L133.034,79.75L133.203,81.2L133.42,82.65L133.69,84.1L134.013,85.55L134.388,87L134.807,88.45L135.258,89.9L135.72,91.35L136.172,92.8L136.586,94.25L136.937,95.7L137.2,97.15L137.356,98.6L137.392,100.05L137.307,101.5L137.105,102.95L136.802,104.4L136.42,105.85L135.984,107.3L135.523,108.75L135.061,110.2L134.621,111.65L134.221,113.1L133.87,114.55L133.574,116L133.333,117.45L133.143,118.9L132.996,120.35L132.885,121.8L132.804,123.25L132.746,124.7L132.709,126.15L132.69,127.6L132.689,129.05L132.71,130.5L132.754,131.95L132.825,133.4L132.926,134.85L133.056,136.3L133.215,137.75L133.399,139.2L133.6,140.65L133.808,142.1L134.013,143.55L134.2,145L134.356,146.45L134.47,147.9L134.532,149.35L134.536,150.8L134.482,152.25L134.371,153.7L134.212,155.15L134.013,156.6L133.788,158.05L133.55,159.5L133.312,160.95L133.087,162.4L132.885,163.85L132.715,165.3L132.58,166.75L132.485,168.2L132.43,169.65L132.412,171.1L132.429,172.55L132.478,174L132.554,175.45L132.655,176.9L132.778,178.35L132.923,179.8L133.091,181.25L133.283,182.7L133.501,184.15L133.747,185.6L134.02,187.05L134.317,188.5L134.633,189.95L134.957,191.4L135.277,192.85L135.578,194.3L135.843,195.75L136.059,197.2L136.212,198.65L136.294,200.1L136.301,201.55L136.235,203L136.104,204.45L135.922,205.9L135.705,207.35L135.471,208.8L135.24,210.25L135.029,211.7L134.855,213.15L134.728,214.6L134.655,216.05L134.639,217.5L134.678,218.95L134.765,220.4L134.889,221.85L135.038,223.3L135.199,224.75L135.358,226.2L135.503,227.65L135.627,229.1L135.723,230.55L135.791,232L135.835,233.45L135.859,234.9L135.873,236.35L135.885,237.8L135.901,239.25L135.929,240.7L135.97,242.15L136.024,243.6L136.089,245.05L136.16,246.5L136.232,247.95L136.299,249.4L136.358,250.85L136.408,252.3L136.449,253.75L136.485,255.2L136.52,256.65L136.56,258.1L136.613,259.55L136.684,261L136.781,262.45L136.907,263.9L137.069,265.35L137.27,266.8L137.515,268.25L137.808,269.7L138.152,271.15L138.551,272.6L139.004,274.05L139.507,275.5L140.053,276.95L140.626,278.4L141.204,279.85L141.759,281.3L142.257,282.75L142.661,284.2L142.936,285.65L143.049,287.1L142.976,288.55L142.705,290L119.8,290L119.529,288.55L119.456,287.1L119.569,285.65L119.844,284.2L120.249,282.75L120.747,281.3L121.302,279.85L121.88,278.4L122.453,276.95L122.998,275.5L123.502,274.05L123.955,272.6L124.353,271.15L124.698,269.7L124.99,268.25L125.235,266.8L125.437,265.35L125.598,263.9L125.725,262.45L125.821,261L125.893,259.55L125.945,258.1L125.986,256.65L126.021,255.2L126.056,253.75L126.097,252.3L126.147,250.85L126.207,249.4L126.274,247.95L126.346,246.5L126.416,245.05L126.481,243.6L126.536,242.15L126.577,240.7L126.604,239.25L126.621,237.8L126.632,236.35L126.646,234.9L126.671,233.45L126.714,232L126.783,230.55L126.879,229.1L127.002,227.65L127.147,226.2L127.306,224.75L127.467,223.3L127.616,221.85L127.741,220.4L127.827,218.95L127.866,217.5L127.85,216.05L127.778,214.6L127.651,213.15L127.476,211.7L127.266,210.25L127.035,208.8L126.801,207.35L126.583,205.9L126.401,204.45L126.271,203L126.205,201.55L126.212,200.1L126.293,198.65L126.446,197.2L126.662,195.75L126.928,194.3L127.229,192.85L127.549,191.4L127.873,189.95L128.188,188.5L128.485,187.05L128.758,185.6L129.004,184.15L129.222,182.7L129.415,181.25L129.583,179.8L129.728,178.35L129.851,176.9L129.952,175.45L130.028,174L130.076,172.55L130.093,171.1L130.076,169.65L130.02,168.2L129.925,166.75L129.791,165.3L129.62,163.85L129.418,162.4L129.193,160.95L128.956,159.5L128.717,158.05L128.492,156.6L128.294,155.15L128.134,153.7L128.024,152.25L127.969,150.8L127.974,149.35L128.036,147.9L128.15,146.45L128.306,145L128.493,143.55L128.697,142.1L128.906,140.65L129.107,139.2L129.29,137.75L129.449,136.3L129.58,134.85L129.68,133.4L129.751,131.95L129.796,130.5L129.816,129.05L129.816,127.6L129.797,126.15L129.759,124.7L129.702,123.25L129.62,121.8L129.51,120.35L129.363,118.9L129.172,117.45L128.931,116L128.635,114.55L128.285,113.1L127.884,111.65L127.445,110.2L126.983,108.75L126.521,107.3L126.085,105.85L125.703,104.4L125.4,102.95L125.199,101.5L125.113,100.05L125.15,98.6L125.306,97.15L125.569,95.7L125.919,94.25L126.334,92.8L126.785,91.35L127.248,89.9L127.698,88.45L128.117,87L128.492,85.55L128.816,84.1L129.085,82.65L129.303,81.2L129.472,79.75L129.598,78.3L129.687,76.85L129.743,75.4L129.77,73.95L129.768,72.5L129.738,71.05L129.678,69.6L129.584,68.15L129.455,66.7L129.287,65.25L129.081,63.8L128.839,62.35L128.567,60.9L128.273,59.45L127.969,58L127.67,56.55L127.39,55.1L127.146,53.65L126.951,52.2L126.816,50.75L126.746,49.3L126.742,47.85L126.799,46.4L126.907,44.95L127.054,43.5L127.221,42.05L127.392,40.6L127.547,39.15L127.669,37.7L127.74,36.25L127.744,34.8L127.661,33.35L127.468,31.9L127.136,30.45L126.623,29L125.87,27.55L124.797,26.1L123.3,24.65L121.249,23.2L118.489,21.75L114.851,20.3L110.163,18.85L104.274,17.4L97.074,15.95L88.53,14.5L78.708,13.05L67.801,11.6L56.137,10.15L44.18,8.7L32.502,7.25L21.749,5.8L12.578,4.35L5.597,2.9L1.298,1.45L0,0Z" fill="rgb(49, 112, 151)"/></g></g><path class="foreground" aria-hidden="true" d="" display="none"/></g></g></g><path class="foreground" aria-hidden="true" d="" display="none"/></g></g><g class="mark-group role-title"><g transform="translate(-33.123046875,-52)"><path class="background" aria-hidden="true" d="M0,0h0v0h0Z" pointer-events="none"/><g><g class="mark-text role-title-text" role="graphics-symbol" aria-roledescription="title" aria-label="Title text 'Cigarette Use Frequency (Days Smoked in Past 30 Days) Across Different Age Groups'" pointer-events="none"><text text-anchor="start" transform="translate(0,19)" font-family="Roboto, sans-serif" font-size="24px" font-weight="bold" fill="#000" opacity="1">Cigarette Use Frequency (Days Smoked in Past 30 Days) Across Different Age Groups</text></g><g class="mark-text role-title-subtitle" role="graphics-symbol" aria-roledescription="subtitle" aria-label="Subtitle text 'Smoking intensity increases with age, showing a trend toward heavier cigarette use in older age groups.'" pointer-events="none"><text text-anchor="start" transform="translate(0,40)" font-family="Roboto, sans-serif" font-size="16px" fill="#000" opacity="1">Smoking intensity increases with age, showing a trend toward heavier cigarette use in older age groups.</text></g></g><path class="foreground" aria-hidden="true" d="" pointer-events="none" display="none"/></g></g></g><path class="foreground" aria-hidden="true" d="" display="none"/></g></g></g></svg>